<svg xmlns="http://www.w3.org/2000/svg" xmlns:xlink="http://www.w3.org/1999/xlink" width="500" zoomAndPan="magnify" viewBox="0 0 375 374.999991" height="500" preserveAspectRatio="xMidYMid meet" version="1.0"><defs><g/><clipPath id="7f3910848d"><path d="M 160 108.855469 L 215 108.855469 L 215 140 L 160 140 Z M 160 108.855469 " clip-rule="nonzero"/></clipPath><clipPath id="061c8a82b7"><path d="M 148.6875 126 L 225.9375 126 L 225.9375 192.105469 L 148.6875 192.105469 Z M 148.6875 126 " clip-rule="nonzero"/></clipPath></defs><rect x="-37.5" width="450" fill="#ffffff" y="-37.499999" height="449.999989" fill-opacity="1"/><rect x="-37.5" width="450" fill="#ffffff" y="-37.499999" height="449.999989" fill-opacity="1"/><g clip-path="url(#7f3910848d)"><path fill="#ffcc00" d="M 214.351562 124.398438 L 187.410156 108.855469 L 160.953125 124.746094 L 187.394531 139.921875 Z M 214.351562 124.398438 " fill-opacity="1" fill-rule="nonzero"/></g><g clip-path="url(#061c8a82b7)"><path fill="#ffcc00" d="M 187.410156 149.191406 L 187.195312 171.957031 L 187.179688 172.9375 L 185.363281 147.960938 L 148.804688 126.824219 L 148.703125 126.777344 L 148.703125 169.226562 C 152.132812 171.109375 155.511719 173.089844 158.871094 175.066406 C 156.242188 180.59375 152.996094 185.800781 150.5 191.394531 C 157.472656 188.929688 164.28125 185.96875 171.203125 183.371094 C 172.515625 182.671875 173.730469 183.636719 174.863281 184.253906 C 176.027344 184.953125 177.210938 185.636719 178.375 186.316406 L 187.410156 192.09375 L 226.21875 169.3125 L 226.234375 169.3125 L 226.285156 126.808594 C 213.289062 134.179688 200.339844 141.6875 187.410156 149.191406 Z M 209.742188 162.203125 C 208.628906 162.203125 207.664062 161.523438 207.230469 160.558594 C 207.082031 160.222656 207.015625 159.859375 207.015625 159.460938 C 207.015625 157.945312 208.246094 156.714844 209.761719 156.714844 C 210.074219 156.714844 210.390625 156.761719 210.675781 156.878906 C 211.738281 157.246094 212.488281 158.261719 212.488281 159.460938 C 212.472656 160.972656 211.257812 162.203125 209.742188 162.203125 Z M 209.742188 162.203125 " fill-opacity="1" fill-rule="nonzero"/></g><g fill="#24265d" fill-opacity="1"><g transform="translate(73.052076, 240.238534)"><g><path d="M 3.5 0 L 10.484375 0 L 10.484375 -34.046875 L 3.5 -34.046875 Z M 3.5 0 "/></g></g></g><g fill="#24265d" fill-opacity="1"><g transform="translate(86.5751, 240.238534)"><g><path d="M 14.90625 0.640625 C 20.84375 0.640625 25.53125 -2.390625 27.640625 -7.5 L 20.5625 -7.5 C 19.40625 -5.890625 17.34375 -4.96875 15.046875 -4.96875 C 11.875 -4.96875 9.390625 -6.765625 8.734375 -10.078125 L 28.109375 -10.078125 C 28.515625 -18.90625 23.28125 -24.796875 15 -24.796875 C 7.171875 -24.796875 1.796875 -19.59375 1.796875 -12.09375 C 1.796875 -4.546875 7.125 0.640625 14.90625 0.640625 Z M 8.78125 -14.484375 C 9.5625 -17.4375 11.953125 -19.234375 15.046875 -19.234375 C 18.265625 -19.234375 20.5625 -17.4375 21.34375 -14.484375 Z M 8.78125 -14.484375 "/></g></g></g><g fill="#24265d" fill-opacity="1"><g transform="translate(115.967134, 240.238534)"><g><path d="M 11.546875 0.453125 C 15.140625 0.453125 18.078125 -0.6875 20.140625 -2.8125 L 20.9375 0 L 26.125 0 L 26.125 -14.53125 C 26.125 -20.9375 21.796875 -24.796875 14.578125 -24.796875 C 8.421875 -24.796875 4.375 -21.84375 3.5 -16.609375 L 10.21875 -16.609375 C 10.625 -18.3125 12.375 -19.453125 14.625 -19.453125 C 17.390625 -19.453125 19.28125 -17.890625 19.28125 -15.5 L 19.28125 -14.390625 L 10.53125 -14.390625 C 5.515625 -14.390625 2.296875 -11.5 2.296875 -7.03125 C 2.296875 -2.390625 5.84375 0.453125 11.546875 0.453125 Z M 9.203125 -7.3125 C 9.203125 -8.96875 10.578125 -10.03125 12.703125 -10.03125 L 19.3125 -10.03125 C 19.1875 -6.765625 16.65625 -4.546875 13.15625 -4.546875 C 10.765625 -4.546875 9.203125 -5.65625 9.203125 -7.3125 Z M 9.203125 -7.3125 "/></g></g></g><g fill="#24265d" fill-opacity="1"><g transform="translate(144.669207, 240.238534)"><g><path d="M 3.5 0 L 10.484375 0 L 10.484375 -10.671875 C 10.484375 -15.875 12.921875 -17.796875 16.921875 -17.796875 L 19.59375 -17.796875 L 19.59375 -24.15625 L 16.96875 -24.15625 C 13.4375 -24.15625 11.171875 -23.1875 9.609375 -20.9375 L 8.6875 -24.15625 L 3.5 -24.15625 Z M 3.5 0 "/></g></g></g><g fill="#24265d" fill-opacity="1"><g transform="translate(165.367776, 240.238534)"><g><path d="M 3.5 0 L 10.484375 0 L 10.484375 -12.65625 C 10.484375 -16.46875 12.609375 -18.8125 15.828125 -18.8125 C 18.8125 -18.8125 20.609375 -16.703125 20.609375 -13.15625 L 20.609375 0 L 27.59375 0 L 27.59375 -13.890625 C 27.59375 -20.5625 23.78125 -24.796875 17.484375 -24.796875 C 14.265625 -24.796875 11.359375 -23.6875 9.4375 -21.4375 L 8.6875 -24.15625 L 3.5 -24.15625 Z M 3.5 0 "/></g></g></g><g fill="#24265d" fill-opacity="1"><g transform="translate(199.428243, 240.238534)"><g><path d="M 17.296875 0.59375 C 24.328125 0.59375 29.4375 -4.6875 29.4375 -11.953125 C 29.4375 -19.1875 24.328125 -24.46875 17.296875 -24.46875 C 13.53125 -24.46875 10.296875 -22.953125 8.140625 -20.46875 L 8.140625 -34.046875 L 4.28125 -34.046875 L 4.28125 0 L 7.453125 0 L 7.90625 -3.6875 C 10.078125 -1.015625 13.390625 0.59375 17.296875 0.59375 Z M 8 -11.953125 C 8 -17.109375 11.640625 -20.796875 16.796875 -20.796875 C 21.984375 -20.796875 25.578125 -17.109375 25.578125 -11.953125 C 25.578125 -6.765625 21.984375 -3.125 16.796875 -3.125 C 11.640625 -3.125 8 -6.765625 8 -11.953125 Z M 8 -11.953125 "/></g></g></g><g fill="#24265d" fill-opacity="1"><g transform="translate(230.798146, 240.238534)"><g><path d="M 13.796875 0.59375 C 16.96875 0.59375 20.0625 -0.6875 22.125 -3.5 L 22.546875 0 L 25.71875 0 L 25.71875 -23.875 L 21.84375 -23.875 L 21.84375 -11.828125 C 21.84375 -6.625 18.765625 -3.125 14.3125 -3.125 C 10.21875 -3.125 7.6875 -6.15625 7.6875 -10.953125 L 7.6875 -23.875 L 3.8125 -23.875 L 3.8125 -10.578125 C 3.8125 -3.765625 7.546875 0.59375 13.796875 0.59375 Z M 13.796875 0.59375 "/></g></g></g><g fill="#24265d" fill-opacity="1"><g transform="translate(260.328165, 240.238534)"><g><path d="M 14.578125 0.59375 C 18.453125 0.59375 21.765625 -1.015625 23.921875 -3.6875 L 24.375 0 L 27.546875 0 L 27.546875 -34.046875 L 23.6875 -34.046875 L 23.6875 -20.515625 C 21.53125 -23 18.3125 -24.46875 14.578125 -24.46875 C 7.5 -24.46875 2.390625 -19.1875 2.390625 -11.953125 C 2.390625 -4.6875 7.5 0.59375 14.578125 0.59375 Z M 6.25 -11.953125 C 6.25 -17.109375 9.890625 -20.796875 15.046875 -20.796875 C 20.234375 -20.796875 23.828125 -17.109375 23.828125 -11.953125 C 23.828125 -6.765625 20.234375 -3.125 15.046875 -3.125 C 9.890625 -3.125 6.25 -6.765625 6.25 -11.953125 Z M 6.25 -11.953125 "/></g></g></g><g fill="#24265d" fill-opacity="1"><g transform="translate(291.698064, 240.238534)"><g><path d="M 14.578125 0.59375 C 18.453125 0.59375 21.765625 -1.015625 23.921875 -3.6875 L 24.375 0 L 27.546875 0 L 27.546875 -34.046875 L 23.6875 -34.046875 L 23.6875 -20.515625 C 21.53125 -23 18.3125 -24.46875 14.578125 -24.46875 C 7.5 -24.46875 2.390625 -19.1875 2.390625 -11.953125 C 2.390625 -4.6875 7.5 0.59375 14.578125 0.59375 Z M 6.25 -11.953125 C 6.25 -17.109375 9.890625 -20.796875 15.046875 -20.796875 C 20.234375 -20.796875 23.828125 -17.109375 23.828125 -11.953125 C 23.828125 -6.765625 20.234375 -3.125 15.046875 -3.125 C 9.890625 -3.125 6.25 -6.765625 6.25 -11.953125 Z M 6.25 -11.953125 "/></g></g></g><g fill="#24265d" fill-opacity="1"><g transform="translate(323.067969, 240.238534)"><g><path d="M 3.453125 9.203125 L 6.15625 9.203125 C 10.625 9.203125 12.78125 8.09375 14.4375 3.71875 L 25.390625 -23.875 L 21.296875 -23.875 L 16.84375 -12.609375 L 13.9375 -5.203125 L 10.4375 -12.609375 L 5.0625 -23.875 L 0.734375 -23.875 L 12.046875 -0.546875 L 10.953125 2.25 C 9.9375 4.921875 8.875 5.5625 5.796875 5.5625 L 3.453125 5.5625 Z M 3.453125 9.203125 "/></g></g></g></svg>